<?xml version="1.0"?>
<svg width="512" height="512" xmlns="http://www.w3.org/2000/svg">

 <g>
  <title>background</title>
  <rect fill="none" id="canvas_background" height="402" width="582" y="-1" x="-1"/>
 </g>
 <g>
  <title>Layer 1</title>
  <path d="m351.031616,123.59906l28.625153,0l0,129.361313l-28.625153,0l0,-129.361313zm-109.987061,0l28.625244,0l0,56.332382l-28.625244,0l0,-56.332382zm-110.70137,0l28.625259,0l0,129.361313l-28.625259,0l0,-129.361313zm56.890808,200.631714l-28.264359,0l0,67.170135l-28.625229,0l0,-67.170135l-28.269257,0l0,-49.672455l85.16008,0l0,49.672455l-0.001236,0zm110.703903,-73.030151l-28.266846,0l0,140.200287l-28.625244,0l0,-140.200287l-28.266815,0l0,-49.671234l85.158905,0l0,49.671234zm109.986969,73.170471l-28.266846,0l0,67.029816l-28.625244,0l0,-67.029816l-28.266846,0l0,-49.672485l85.160156,0l0,49.672485l-0.001221,0zm1.211029,-271.147812c27.025208,0 48.932037,22.03727 48.932037,49.223312l0,310.106781c0,27.186066 -21.90683,49.223328 -48.932037,49.223328l-308.271828,0c-27.025162,0 -48.932037,-22.037262 -48.932037,-49.223328l0,-310.106781c0,-27.186043 21.906876,-49.223312 48.932037,-49.223312l308.271828,0zm97.864105,43.070389c0,-50.973186 -41.075989,-92.293688 -91.747589,-92.293688l-320.504852,0c-50.671562,0 -91.747565,41.320501 -91.747565,92.293688l0,322.412598c0,50.973236 41.076003,92.293732 91.747565,92.293732l320.504852,0c50.6716,0 91.747589,-41.320496 91.747589,-92.293732l0,-322.412598z" id="control-panel-10-icon"/>
 </g>
</svg>